<svg xmlns="http://www.w3.org/2000/svg" viewBox="0 0 229.31 78.45"><defs><style>.cls-1,.cls-2{fill:none;stroke:#231815;stroke-miterlimit:10;}.cls-1{stroke-width:1.01px;}.cls-2{stroke-linecap:round;}.cls-3{fill:#231815;}</style></defs><g id="レイヤー_2" data-name="レイヤー 2"><g id="レイヤー_1-2" data-name="レイヤー 1"><path class="cls-1" d="M104.26,19.49a80.73,80.73,0,0,1,67.48,23"/><path class="cls-1" d="M57.51,42.48a80.39,80.39,0,0,1,33.09-20"/><path class="cls-2" d="M137.27,29.55A19.6,19.6,0,1,1,107.66,4a19.19,19.19,0,0,1,2.18-1.88"/><path class="cls-2" d="M109.18.5a23.79,23.79,0,1,0,29.74,29.63"/><path class="cls-3" d="M8.87,76a5.8,5.8,0,0,1-4.73,2.47A4.11,4.11,0,0,1,0,74.31c0-2.25,1.68-3.5,3.58-4.79-1.26-1.54-2-2.48-2-3.82a3.05,3.05,0,0,1,3.32-3c2.24,0,3.37,1.46,3.37,2.87,0,1.72-1.49,2.73-3.09,3.92a2.09,2.09,0,0,0-.22.16c1,1.19,2.52,3.11,3.9,4.79a22.89,22.89,0,0,0,1.39-2.55l.75.59a24.81,24.81,0,0,1-1.52,2.71c1.13,1.39,2,2.48,2.21,2.7l0,.06H10.5C10.16,77.56,9.57,76.85,8.87,76ZM4.18,77.62a5.11,5.11,0,0,0,4.08-2.38c-1.51-1.84-3.29-4-4.12-5C2.61,71.22,1,72.31,1,74.27A3.35,3.35,0,0,0,4.18,77.62ZM4.36,69l.33-.24c1.41-1,2.54-1.86,2.54-3.17a2.14,2.14,0,0,0-2.38-2.06,2.18,2.18,0,0,0-2.33,2.18c0,1.09.65,1.84,1.8,3.25Z"/><path class="cls-3" d="M52.69,65.1V78h-1V63.2h1.11L58.55,74l5.7-10.84h1.09V78h-1V65.1L58.77,75.64h-.48Z"/><path class="cls-3" d="M121.78,70.57a8.08,8.08,0,1,1-8.07-7.84A8,8,0,0,1,121.78,70.57Zm-15.16,0a7.08,7.08,0,1,0,7.09-6.93A7.1,7.1,0,0,0,106.62,70.55Z"/><path class="cls-3" d="M177.73,70.57a8.07,8.07,0,1,1-8.06-7.84A8,8,0,0,1,177.73,70.57Zm-15.15,0a7.07,7.07,0,1,0,7.09-6.93A7.1,7.1,0,0,0,162.58,70.55Z"/><path class="cls-3" d="M219,64.73V78h-1V63.2h1.11l9.21,13v-13h1V78h-1Z"/></g></g></svg>