<svg xmlns="http://www.w3.org/2000/svg" viewBox="0 0 229.61 90.48"><defs><style>.cls-1{fill:#231815;}</style></defs><title>&amp;amp;sun</title><g id="レイヤー_2" data-name="レイヤー 2"><g id="レイヤー_1-2" data-name="レイヤー 1"><path class="cls-1" d="M4.29,86H2.6v4.42H1.82V86H.13v-.68H4.29Z"/><path class="cls-1" d="M10.76,86V87.4h2.6v.67h-2.6v1.61h2.86v.69H10v-5.1h3.64V86Z"/><path class="cls-1" d="M23.51,90.37h-.79a1.36,1.36,0,0,1-.15-.65l0-.55c0-.69-.3-.9-.87-.9H20.2v2.1h-.77v-5.1h2.23c1.08,0,1.76.52,1.76,1.41a1.2,1.2,0,0,1-.86,1.23,1,1,0,0,1,.73,1l.05.8A1.28,1.28,0,0,0,23.51,90.37Zm-.88-3.62c0-.57-.39-.82-1-.82H20.2v1.7h1.48A.84.84,0,0,0,22.63,86.75Z"/><path class="cls-1" d="M33.45,90.37h-.79a1.25,1.25,0,0,1-.15-.65l0-.55c0-.69-.3-.9-.87-.9H30.14v2.1h-.77v-5.1H31.6c1.07,0,1.75.52,1.75,1.41a1.2,1.2,0,0,1-.86,1.23,1,1,0,0,1,.74,1l.05.8A1.28,1.28,0,0,0,33.45,90.37Zm-.88-3.62c0-.57-.4-.82-1-.82H30.14v1.7h1.47A.85.85,0,0,0,32.57,86.75Z"/><path class="cls-1" d="M42.56,89h-2.3l-.49,1.33H39l2-5.1h.88l2,5.1h-.81Zm-.25-.66-.11-.28c-.21-.52-.54-1.39-.8-2.09-.25.7-.58,1.57-.78,2.09l-.11.28Z"/><path class="cls-1" d="M49.11,87.82a2.4,2.4,0,0,1,2.41-2.67A2.14,2.14,0,0,1,53.76,87H53a1.4,1.4,0,0,0-1.46-1.13c-1,0-1.61.74-1.61,2s.64,2,1.61,2A1.44,1.44,0,0,0,53,88.48h.77a2.16,2.16,0,0,1-2.27,2A2.4,2.4,0,0,1,49.11,87.82Z"/><path class="cls-1" d="M60.41,86V87.4H63v.67h-2.6v1.61h2.85v.69H59.64v-5.1h3.64V86Z"/><path class="cls-1" d="M79.66,85.27v5.1h-.77V88.1H76.26v2.27H75.5v-5.1h.76V87.4h2.63V85.27Z"/><path class="cls-1" d="M85.54,87.82A2.5,2.5,0,1,1,88,90.48,2.44,2.44,0,0,1,85.54,87.82Zm4.18,0c0-1.22-.67-2-1.69-2s-1.7.76-1.7,2,.68,2,1.7,2S89.72,89,89.72,87.82Z"/><path class="cls-1" d="M96.34,88.46V85.27h.77v3.2a1.3,1.3,0,1,0,2.59,0v-3.2h.77v3.19a2.07,2.07,0,0,1-4.13,0Z"/><path class="cls-1" d="M106.26,88.69H107c0,.88.62,1.14,1.39,1.14s1.18-.29,1.18-.85-.3-.66-1.16-.85L108,88c-.93-.19-1.59-.58-1.59-1.5s.67-1.39,1.8-1.39c1.47,0,2,.73,2,1.61h-.76c0-.6-.34-1-1.26-1-.69,0-1,.28-1,.72s.23.67,1.11.86l.44.09c1.19.26,1.64.71,1.64,1.49,0,.94-.73,1.52-2,1.52S106.26,89.92,106.26,88.69Z"/><path class="cls-1" d="M117,86V87.4h2.6v.67H117v1.61h2.85v.69h-3.62v-5.1h3.64V86Z"/><path class="cls-1" d="M133.56,85.27h.69l-1.82,5.1h-.7Z"/><path class="cls-1" d="M150.3,86.88a1.54,1.54,0,0,1-1.75,1.6h-1.41v1.89h-.76v-5.1h2.17A1.55,1.55,0,0,1,150.3,86.88Zm-.78,0a.87.87,0,0,0-1-.94h-1.39v1.87h1.39A.87.87,0,0,0,149.52,86.88Z"/><path class="cls-1" d="M156.82,86V87.4h2.6v.67h-2.6v1.61h2.85v.69h-3.62v-5.1h3.64V86Z"/><path class="cls-1" d="M169.65,85.27v5.1h-.88L167.2,87.9c-.34-.53-.73-1.15-1-1.64,0,1,0,1.84,0,2.56v1.55h-.74v-5.1h.88l1.57,2.47c.33.51.72,1.15,1,1.65,0-1,0-1.85,0-2.57V85.27Z"/><path class="cls-1" d="M179.52,86h-1.69v4.42h-.78V86h-1.7v-.68h4.17Z"/><path class="cls-1" d="M189.38,85.27v5.1h-.76V88.1H186v2.27h-.77v-5.1H186V87.4h2.63V85.27Z"/><path class="cls-1" d="M195.26,87.82a2.5,2.5,0,1,1,2.5,2.66A2.45,2.45,0,0,1,195.26,87.82Zm4.19,0c0-1.22-.68-2-1.69-2s-1.7.76-1.7,2,.67,2,1.7,2S199.45,89,199.45,87.82Z"/><path class="cls-1" d="M206.06,88.46V85.27h.77v3.2a1.3,1.3,0,1,0,2.59,0v-3.2h.77v3.19a2.07,2.07,0,0,1-4.13,0Z"/><path class="cls-1" d="M216,88.69h.77c0,.88.61,1.14,1.39,1.14s1.17-.29,1.17-.85-.3-.66-1.15-.85l-.44-.09c-.92-.19-1.59-.58-1.59-1.5s.67-1.39,1.81-1.39c1.47,0,2,.73,2,1.61h-.76c0-.6-.33-1-1.26-1-.68,0-1,.28-1,.72s.24.67,1.11.86l.45.09c1.19.26,1.64.71,1.64,1.49,0,.94-.74,1.52-2,1.52S216,89.92,216,88.69Z"/><path class="cls-1" d="M226.73,86V87.4h2.6v.67h-2.6v1.61h2.85v.69H226v-5.1h3.64V86Z"/><path class="cls-1" d="M171.33,24.49a80.4,80.4,0,0,0-113.57,0l-.71-.71a81.4,81.4,0,0,1,115,0Z"/><path class="cls-1" d="M8.84,57.57A5.79,5.79,0,0,1,4.12,60,4.09,4.09,0,0,1,0,55.92c0-2.25,1.68-3.49,3.57-4.78-1.26-1.54-2-2.46-2-3.8a3,3,0,0,1,3.31-3c2.23,0,3.36,1.46,3.36,2.86,0,1.71-1.48,2.72-3.08,3.9a2.09,2.09,0,0,0-.22.16c1,1.19,2.51,3.1,3.89,4.78a24.53,24.53,0,0,0,1.38-2.55l.75.59a25.45,25.45,0,0,1-1.52,2.7c1.12,1.39,2,2.47,2.21,2.69l0,.06H10.46C10.12,59.15,9.53,58.44,8.84,57.57ZM4.16,59.21a5.06,5.06,0,0,0,4.06-2.36c-1.49-1.84-3.27-4-4.1-5C2.6,52.84,1,53.93,1,55.88A3.34,3.34,0,0,0,4.16,59.21Zm.18-8.58.33-.24c1.41-1,2.53-1.85,2.53-3.15a2.13,2.13,0,0,0-2.37-2.05A2.17,2.17,0,0,0,2.5,47.36c0,1.08.65,1.83,1.8,3.23Z"/><path class="cls-1" d="M150.13,60.07c-3.14,0-5-2.15-5-5.74V44.88h1v9.84c0,3,1.95,4.44,4.07,4.44s4.1-1.48,4.1-4.44V44.88h1v9.45C155.22,57.92,153.32,60.07,150.13,60.07Z"/><path class="cls-1" d="M81.1,46.42a5,5,0,0,0-2.7-1c-2.11,0-2.63,1.42-2.63,2.17,0,1.21.74,2.05,2.83,3.47,2.64,1.86,3.86,3.12,3.86,4.82,0,2.52-2,3.92-4.34,3.92a7.24,7.24,0,0,1-3.9-1.3l.49-.85A6.12,6.12,0,0,0,78.14,59a3,3,0,0,0,3.32-3c0-1.42-1-2.47-3.4-4.07s-3.27-2.7-3.27-4.22,1.16-3.1,3.59-3.1a6,6,0,0,1,3.23,1Z"/><path class="cls-1" d="M218.82,46.4V59.6h-1V44.88h1.11l9.17,13v-13h1V59.6h-1Z"/></g></g></svg>