<svg xmlns="http://www.w3.org/2000/svg" viewBox="0 0 187.09 146.11"><defs><style>.cls-1{fill:#231815;}.cls-2{fill:none;stroke:#231815;stroke-linecap:round;stroke-miterlimit:10;stroke-width:1.03px;}</style></defs><title>funnyhouse</title><g id="レイヤー_2" data-name="レイヤー 2"><g id="レイヤー_1-2" data-name="レイヤー 1"><path class="cls-1" d="M22.49,26.77a.5.5,0,0,1-.5-.5,10.5,10.5,0,1,0-21,0,.5.5,0,1,1-1,0,11.49,11.49,0,1,1,23,0A.49.49,0,0,1,22.49,26.77Z"/><path class="cls-1" d="M22.49,26.77a.5.5,0,0,1-.5-.5A19.57,19.57,0,0,0,2.44,6.72a.5.5,0,1,1,0-1A20.56,20.56,0,0,1,23,26.27.49.49,0,0,1,22.49,26.77Z"/><path class="cls-1" d="M22.49,26.77a.5.5,0,0,1-.5-.5A20.57,20.57,0,0,1,42.54,5.73a.5.5,0,0,1,0,1A19.57,19.57,0,0,0,23,26.27.49.49,0,0,1,22.49,26.77Z"/><path class="cls-1" d="M44.48,26.77a.49.49,0,0,1-.49-.5,10.51,10.51,0,0,0-21,0,.5.5,0,1,1-1,0,11.49,11.49,0,0,1,23,0A.49.49,0,0,1,44.48,26.77Z"/><path class="cls-1" d="M22.49,29.05a.49.49,0,0,1-.5-.49V.49a.5.5,0,0,1,1,0V28.56A.49.49,0,0,1,22.49,29.05Z"/><path class="cls-1" d="M164.6,26.77a.49.49,0,0,1-.49-.5,10.51,10.51,0,0,0-21,0,.5.5,0,1,1-1,0,11.49,11.49,0,0,1,23,0A.49.49,0,0,1,164.6,26.77Z"/><path class="cls-1" d="M164.6,26.77a.49.49,0,0,1-.49-.5A19.58,19.58,0,0,0,144.55,6.72a.5.5,0,0,1,0-1,20.56,20.56,0,0,1,20.54,20.54A.49.49,0,0,1,164.6,26.77Z"/><path class="cls-1" d="M164.6,26.77a.49.49,0,0,1-.49-.5A20.56,20.56,0,0,1,184.65,5.73a.5.5,0,0,1,0,1,19.57,19.57,0,0,0-19.56,19.55A.49.49,0,0,1,164.6,26.77Z"/><path class="cls-1" d="M186.59,26.77a.49.49,0,0,1-.49-.5,10.51,10.51,0,0,0-21,0,.49.49,0,1,1-1,0,11.49,11.49,0,1,1,23,0A.5.5,0,0,1,186.59,26.77Z"/><path class="cls-1" d="M164.6,29.05a.49.49,0,0,1-.49-.49V.49a.49.49,0,0,1,1,0V28.56A.49.49,0,0,1,164.6,29.05Z"/><path class="cls-1" d="M22.49,49.45A.5.5,0,0,1,22,49V31.42a.5.5,0,0,1,1,0V49A.5.5,0,0,1,22.49,49.45Z"/><path class="cls-1" d="M164.6,49.45a.5.5,0,0,1-.49-.5V31.42a.49.49,0,1,1,1,0V49A.5.5,0,0,1,164.6,49.45Z"/><path class="cls-1" d="M4.62,83.8a.5.5,0,0,1-.5-.5V64a.5.5,0,0,1,1,0V83.3A.5.5,0,0,1,4.62,83.8Z"/><path class="cls-1" d="M5.6,61.29A.5.5,0,0,1,5.17,61a.5.5,0,0,1,.18-.68l86.55-50a.49.49,0,0,1,.49.85l-86.55,50A.42.42,0,0,1,5.6,61.29Z"/><path class="cls-1" d="M181.49,61.29a.47.47,0,0,1-.25-.07l-86.54-50a.49.49,0,0,1,.49-.85l86.55,50a.51.51,0,0,1,.18.68A.5.5,0,0,1,181.49,61.29Z"/><path class="cls-1" d="M182.47,83.8a.5.5,0,0,1-.49-.5V64a.49.49,0,1,1,1,0V83.3A.5.5,0,0,1,182.47,83.8Z"/><path class="cls-1" d="M97.23,104.54v9H95.67l-2.78-4.38c-.6-.93-1.28-2-1.76-2.9.05,1.7.05,3.26.05,4.54v2.74H89.86v-9h1.56l2.79,4.38c.57.9,1.27,2,1.76,2.91,0-1.71,0-3.27,0-4.55v-2.74Z"/><path class="cls-1" d="M141.69,104.54v9h-1.56l-2.78-4.38c-.59-.93-1.28-2-1.76-2.9,0,1.7,0,3.26,0,4.54v2.74h-1.32v-9h1.56l2.79,4.38c.57.9,1.27,2,1.76,2.91-.05-1.71-.05-3.27-.05-4.55v-2.74Z"/><path class="cls-1" d="M186.57,104.54,183.15,110v3.6H181.8V110l-3.43-5.43h1.53l1.19,1.9c.47.78.95,1.55,1.41,2.31.45-.77.92-1.56,1.4-2.32l1.16-1.89Z"/><path class="cls-1" d="M89.89,142.53v-5.65h1.36v5.67a2.3,2.3,0,1,0,4.59,0v-5.67H97.2v5.65c0,2.3-1.37,3.57-3.66,3.57A3.29,3.29,0,0,1,89.89,142.53Z"/><path class="cls-1" d="M134.35,142.93h1.36c0,1.56,1.09,2,2.46,2s2.08-.52,2.08-1.51c0-.8-.53-1.17-2-1.5l-.77-.16c-1.64-.33-2.82-1-2.82-2.67,0-1.47,1.19-2.45,3.2-2.45,2.6,0,3.55,1.28,3.58,2.86h-1.34c-.07-1.07-.59-1.7-2.23-1.7-1.22,0-1.83.49-1.83,1.27s.42,1.18,2,1.52l.78.16c2.11.45,2.91,1.26,2.91,2.63,0,1.67-1.31,2.7-3.51,2.7S134.37,145.11,134.35,142.93Z"/><path class="cls-1" d="M180.61,138.09v2.55h4.6v1.2h-4.6v2.85h5v1.22h-6.4v-9h6.44v1.21Z"/><path class="cls-1" d="M45.43,110.2v-5.66h1.36v5.67a2.3,2.3,0,1,0,4.59,0v-5.67h1.35v5.66c0,2.29-1.37,3.56-3.65,3.56A3.29,3.29,0,0,1,45.43,110.2Z"/><path class="cls-1" d="M44.67,141.39c0-2.81,1.75-4.72,4.42-4.72s4.4,1.91,4.4,4.72-1.75,4.72-4.4,4.72S44.67,144.21,44.67,141.39Zm7.41,0c0-2.15-1.19-3.5-3-3.5s-3,1.35-3,3.5,1.19,3.5,3,3.5S52.08,143.55,52.08,141.39Z"/><path class="cls-1" d="M2.9,105.76v2.55H7.22v1.19H2.9v4.07H1.54v-9H7.69v1.22Z"/><path class="cls-1" d="M8.3,136.88v9H6.94v-4H2.29v4H.93v-9H2.29v3.76H6.94v-3.76Z"/><path class="cls-2" d="M57.33,83.9V67.4a8.25,8.25,0,0,0-16.5,0V83.9"/><path class="cls-2" d="M101.79,83.9V67.4a8.25,8.25,0,1,0-16.49,0V83.9"/><path class="cls-2" d="M146.26,83.9V67.4a8.25,8.25,0,0,0-16.5,0V83.9"/></g></g></svg>