<svg xmlns="http://www.w3.org/2000/svg" viewBox="0 0 136.64 106.71"><defs><style>.cls-1{fill:#231815;}</style></defs><title>funnyhouse_hayama</title><g id="レイヤー_2" data-name="レイヤー 2"><g id="レイヤー_1-2" data-name="レイヤー 1"><path class="cls-1" d="M16.42,19.55a.36.36,0,0,1-.36-.36,7.67,7.67,0,1,0-15.34,0,.36.36,0,0,1-.72,0,8.39,8.39,0,0,1,16.78,0A.36.36,0,0,1,16.42,19.55Z"/><path class="cls-1" d="M16.42,19.55a.36.36,0,0,1-.36-.36A14.29,14.29,0,0,0,1.78,4.91a.36.36,0,0,1,0-.72,15,15,0,0,1,15,15A.36.36,0,0,1,16.42,19.55Z"/><path class="cls-1" d="M16.42,19.55a.36.36,0,0,1-.36-.36,15,15,0,0,1,15-15,.36.36,0,1,1,0,.72A14.3,14.3,0,0,0,16.78,19.19.36.36,0,0,1,16.42,19.55Z"/><path class="cls-1" d="M32.49,19.55a.36.36,0,0,1-.36-.36,7.68,7.68,0,0,0-15.35,0,.36.36,0,1,1-.72,0,8.4,8.4,0,0,1,16.79,0A.36.36,0,0,1,32.49,19.55Z"/><path class="cls-1" d="M16.42,21.22a.36.36,0,0,1-.36-.36V.36a.36.36,0,0,1,.72,0v20.5A.36.36,0,0,1,16.42,21.22Z"/><path class="cls-1" d="M120.21,19.55a.36.36,0,0,1-.36-.36,7.67,7.67,0,1,0-15.34,0,.36.36,0,0,1-.72,0,8.39,8.39,0,1,1,16.78,0A.36.36,0,0,1,120.21,19.55Z"/><path class="cls-1" d="M120.21,19.55a.36.36,0,0,1-.36-.36A14.29,14.29,0,0,0,105.57,4.91a.36.36,0,1,1,0-.72,15,15,0,0,1,15,15A.36.36,0,0,1,120.21,19.55Z"/><path class="cls-1" d="M120.21,19.55a.36.36,0,0,1-.36-.36,15,15,0,0,1,15-15,.36.36,0,0,1,0,.72,14.3,14.3,0,0,0-14.29,14.28A.36.36,0,0,1,120.21,19.55Z"/><path class="cls-1" d="M136.28,19.55a.36.36,0,0,1-.36-.36,7.68,7.68,0,0,0-15.35,0,.36.36,0,1,1-.72,0,8.4,8.4,0,0,1,16.79,0A.36.36,0,0,1,136.28,19.55Z"/><path class="cls-1" d="M120.21,21.22a.36.36,0,0,1-.36-.36V.36a.36.36,0,1,1,.72,0v20.5A.36.36,0,0,1,120.21,21.22Z"/><path class="cls-1" d="M16.42,36.11a.36.36,0,0,1-.36-.36V23a.36.36,0,0,1,.72,0v12.8A.36.36,0,0,1,16.42,36.11Z"/><path class="cls-1" d="M120.21,36.11a.36.36,0,0,1-.36-.36V23a.36.36,0,1,1,.72,0v12.8A.36.36,0,0,1,120.21,36.11Z"/><path class="cls-1" d="M3.37,61.2A.36.36,0,0,1,3,60.84V46.75a.36.36,0,0,1,.72,0V60.84A.36.36,0,0,1,3.37,61.2Z"/><path class="cls-1" d="M4.09,44.76a.33.33,0,0,1-.31-.18.36.36,0,0,1,.13-.49L67.12,7.59a.36.36,0,0,1,.36.63L4.27,44.71A.41.41,0,0,1,4.09,44.76Z"/><path class="cls-1" d="M132.55,44.76a.37.37,0,0,1-.18,0L69.16,8.22A.36.36,0,0,1,69,7.73a.35.35,0,0,1,.49-.14l63.21,36.5a.36.36,0,0,1-.18.67Z"/><path class="cls-1" d="M133.26,61.2a.36.36,0,0,1-.36-.36V46.75a.37.37,0,0,1,.73,0V60.84A.37.37,0,0,1,133.26,61.2Z"/><path class="cls-1" d="M71,76.35v6.59H69.87l-2-3.19c-.43-.69-.93-1.48-1.29-2.12,0,1.24,0,2.38,0,3.31v2h-1V76.35h1.14l2,3.2c.42.65.93,1.49,1.29,2.13,0-1.25,0-2.39,0-3.33v-2Z"/><path class="cls-1" d="M103.48,76.35v6.59h-1.14l-2-3.19c-.43-.69-.93-1.48-1.28-2.12,0,1.24,0,2.38,0,3.31v2h-1V76.35h1.14l2,3.2c.41.65.92,1.49,1.28,2.13,0-1.25,0-2.39,0-3.33v-2Z"/><path class="cls-1" d="M136.26,76.35l-2.5,4v2.63h-1V80.31l-2.51-4h1.12l.87,1.39,1,1.69c.32-.57.67-1.14,1-1.7l.85-1.38Z"/><path class="cls-1" d="M65.65,104.1V100h1v4.14a1.68,1.68,0,1,0,3.36,0V100h1v4.13a2.67,2.67,0,0,1-5.34,0Z"/><path class="cls-1" d="M98.12,104.39h1c0,1.13.79,1.48,1.79,1.48s1.52-.38,1.52-1.11-.39-.85-1.49-1.09l-.56-.12c-1.2-.24-2.06-.75-2.06-1.94s.87-1.79,2.33-1.79c1.9,0,2.6.93,2.62,2.08h-1c-.05-.77-.43-1.24-1.63-1.24-.89,0-1.33.36-1.33.93s.3.86,1.43,1.11l.58.12c1.54.32,2.12.92,2.12,1.92,0,1.22-.95,2-2.57,2S98.13,106,98.12,104.39Z"/><path class="cls-1" d="M131.9,100.86v1.86h3.37v.87H131.9v2.08h3.69v.89h-4.68V100h4.71v.89Z"/><path class="cls-1" d="M33.18,80.48V76.35h1v4.14a1.68,1.68,0,1,0,3.35,0V76.35h1v4.13a2.4,2.4,0,0,1-2.66,2.6A2.4,2.4,0,0,1,33.18,80.48Z"/><path class="cls-1" d="M32.63,103.26a3.22,3.22,0,1,1,3.22,3.45A3.15,3.15,0,0,1,32.63,103.26Zm5.41,0c0-1.57-.87-2.55-2.19-2.55s-2.19,1-2.19,2.55.87,2.56,2.19,2.56S38,104.84,38,103.26Z"/><path class="cls-1" d="M2.12,77.24V79.1H5.28V80H2.12v3h-1V76.35H5.62v.89Z"/><path class="cls-1" d="M6.06,100v6.59h-1v-2.93H1.67v2.93h-1V100h1v2.75h3.4V100Z"/><path class="cls-1" d="M28.25,52.57v4.94h-.74v-2.2H25v2.2h-.74V52.57H25v2.06h2.55V52.57Z"/><path class="cls-1" d="M44.19,56.23H42l-.48,1.28h-.77l1.93-4.94h.85l2,4.94h-.78ZM44,55.58l-.11-.27c-.2-.51-.52-1.34-.77-2-.25.69-.57,1.52-.76,2l-.11.27Z"/><path class="cls-1" d="M61.44,52.57l-1.87,3v2h-.74v-2l-1.88-3h.84l.65,1,.77,1.26c.24-.42.5-.85.77-1.27l.63-1Z"/><path class="cls-1" d="M76.39,56.23H74.17l-.48,1.28h-.77l1.93-4.94h.85l2,4.94h-.78Zm-.24-.65L76,55.31c-.2-.51-.52-1.34-.77-2-.25.69-.57,1.52-.76,2l-.11.27Z"/><path class="cls-1" d="M95.21,52.57v4.94h-.72V56c0-.7,0-1.57,0-2.5-.13.38-.25.71-.42,1.14L93,57.51h-.62L91.23,54.6c-.16-.42-.29-.75-.41-1.12,0,.93,0,1.79,0,2.48v1.55h-.71V52.57h1l1,2.63c.17.47.37,1,.51,1.4.14-.42.34-1,.51-1.47l1-2.56Z"/><path class="cls-1" d="M111.15,56.23h-2.23l-.48,1.28h-.77l1.93-4.94h.86l2,4.94h-.79Zm-.25-.65-.1-.27c-.2-.51-.52-1.34-.77-2-.25.69-.57,1.52-.77,2l-.1.27Z"/></g></g></svg>